# xmcd
#
# Track frame offsets:
#	183
#	15408
#	28908
#	43095
#	54933
#	66845
#	82070
#	95608
#	110108
#	125533
#	140108
#	156870
#	170445
#	182883
#
# Disc length: 2636
#
# Revision: 1
# Processed by: cddbd v1.5.1PL0 Copyright (c) Steve Scherf et al.
# Submitted via: EasyCDDAExtractor 4.5.0.2
# Normalized: r0:TDELIM( - )
#
DISCID=c80a4a0e
DTITLE=Various Artist - World War 2 Love Songs
DYEAR=1994
DGENRE=Big Band
TTITLE0=Glen Miller and His Orchestra - Moonlight Serenade
TTITLE1=The Andrews Sisters - (I'll Be With You) In Apple Blossom Time
TTITLE2=Tommy Dorsey and His Orchestra - I'll Never Smile Again
TTITLE3=The Mills Brothers - Paper Doll
TTITLE4=Les Brown and His Orchestra - Sentimental Journey
TTITLE5=The Ink Spots - We Three (My Echo, My Shadow, And Me)
TTITLE6=Harry James and His Orchestra - Iv'e Heard That Song Before
TTITLE7=Bing Crosby - Moonlight Becomes You
TTITLE8=Jimmy Dorsey and His Orchestra - Amapola
TTITLE9=Vera Lynn - A Nightingale Sang In Berkely Square
TTITLE10=Artie Shaw and His Orchestra - Star Dust
TTITLE11=Ella Fitzgerald and Her Famous Orchestra - My Man
TTITLE12=Dick Haymes and The Song Spinners - You'll Never Know
TTITLE13=Benny Goodman and His Orchestra - We'll Meet Again
EXTD=
EXTT0=
EXTT1=
EXTT2=
EXTT3=
EXTT4=
EXTT5=
EXTT6=
EXTT7=
EXTT8=
EXTT9=
EXTT10=
EXTT11=
EXTT12=
EXTT13=
PLAYORDER=
